<svg xmlns="http://www.w3.org/2000/svg" viewBox="0 0 1912 958" preserveAspectRatio="xMidYMid" width="1912" height="958" style="shape-rendering: auto; display: block; background: rgb(255, 255, 255);" xmlns:xlink="http://www.w3.org/1999/xlink"><g><g transform="translate(2193.4723945959195,-420.07632190656705) scale(100)" opacity="0.4">
  <path d="M14.99008 0 C14.99008 3.0591999999999997 15.041259067812511 5.151615084742645 13.511659067812511 7.80096 S10.144384915257357 11.452190084761037 7.495040000000002 12.981790084761037 S3.0592000000000006 15.601920000000002 9.553420694276537e-16 15.601920000000002 S-4.845695084742642 14.511390084761038 -7.495039999999997 12.98179008476104 S-11.982059067812507 10.45030491525736 -13.511659067812507 7.800960000000006 S-14.99008 3.0592000000000015 -14.99008 1.8357553490962755e-15 S-15.041259067812511 -5.151615084742641 -13.511659067812513 -7.800959999999996 S-10.14438491525736 -11.452190084761032 -7.495040000000007 -12.981790084761034 S-3.0592000000000024 -15.601920000000002 -2.866026208282961e-15 -15.601920000000002 S4.845695084742635 -14.511390084761043 7.495039999999991 -12.981790084761045 S11.982059067812504 -10.450304915257362 13.511659067812506 -7.800960000000008 S14.99008 -3.0592000000000033 14.99008 -3.671510698192551e-15" fill="#0055ff" stroke-width="0">
    <animateTransform attributeName="transform" type="rotate" dur="10s" repeatCount="indefinite" values="0;60"></animateTransform>
  </path>
</g><g transform="translate(2440.9668735151035,-599.8915862878805) scale(100)" opacity="0.4">
  <path d="M17.988096000000002 0 C17.988096000000002 3.67104 18.049510881375014 6.181938101691175 16.213990881375015 9.361152 S12.173261898308828 13.742628101713246 8.994048000000003 15.578148101713246 S3.6710400000000014 18.722304000000005 1.1464104833131846e-15 18.722304000000005 S-5.814834101691172 17.41366810171325 -8.994047999999998 15.578148101713248 S-14.37847088137501 12.540365898308835 -16.21399088137501 9.36115200000001 S-17.988096000000002 3.6710400000000023 -17.988096000000002 2.2029064189155312e-15 S-18.049510881375017 -6.181938101691171 -16.213990881375018 -9.361151999999997 S-12.173261898308834 -13.74262810171324 -8.994048000000008 -15.578148101713243 S-3.6710400000000036 -18.722304000000005 -3.4392314499395537e-15 -18.722304000000005 S5.8148341016911615 -17.413668101713252 8.994047999999989 -15.578148101713255 S14.378470881375009 -12.540365898308835 16.21399088137501 -9.361152000000011 S17.988096000000002 -3.6710400000000045 17.988096000000002 -4.4058128378310624e-15" fill="#0046ff" stroke-width="0">
    <animateTransform attributeName="transform" type="rotate" dur="5s" repeatCount="indefinite" values="0;60"></animateTransform>
  </path>
</g><g transform="translate(3034.953622921145,-1031.4482208030324) scale(100)" opacity="0.4">
  <path d="M25.1833344 0 C25.1833344 5.139455999999999 25.269315233925013 8.654713342367643 22.699587233925016 13.105612799999998 S17.042566657632356 19.239679342398542 12.591667200000003 21.809407342398544 S5.139456000000001 26.2112256 1.604974676638458e-15 26.2112256 S-8.14076774236764 24.37913534239854 -12.591667199999995 21.809407342398544 S-20.129859233925007 17.556512257632363 -22.69958723392501 13.105612800000008 S-25.1833344 5.139456000000002 -25.1833344 3.084068986481743e-15 S-25.269315233925017 -8.654713342367636 -22.69958723392502 -13.105612799999992 S-17.042566657632364 -19.239679342398535 -12.59166720000001 -21.809407342398536 S-5.139456000000004 -26.2112256 -4.814924029915374e-15 -26.2112256 S8.140767742367625 -24.37913534239855 12.591667199999984 -21.809407342398554 S20.129859233925007 -17.556512257632367 22.69958723392501 -13.105612800000012 S25.1833344 -5.139456000000005 25.1833344 -6.168137972963486e-15" fill="#0033ff" stroke-width="0">
    <animateTransform attributeName="transform" type="rotate" dur="3.3333333333333335s" repeatCount="indefinite" values="0;60"></animateTransform>
  </path>
</g><g></g></g><!-- [ldio] generated by https://loading.io --></svg>